<svg id="Layer_2" xmlns="http://www.w3.org/2000/svg" viewBox="0 0 122.45 37.63" aria-label="Radisson Blu N'Djamena Blue">
  <g id="Layer_3">
    <g>
      <path fill="#003058" d="M86.86,31.66h.61v4.46h-.55l-2.98-3.44v3.44h-.6v-4.46h.52l3.01,3.47v-3.47Z"/>
      <path fill="#003058" d="M88.85,33.23v-.12c.1-.09.16-.19.2-.28.04-.09.06-.22.07-.38-.23-.07-.34-.21-.34-.42,0-.12.04-.22.12-.3.08-.08.17-.12.28-.12.13,0,.24.06.32.17.08.12.12.26.12.44,0,.24-.07.45-.2.63-.14.18-.32.31-.56.38Z"/>
      <path fill="#003058" d="M90.87,36.12v-4.46h1.51c.61,0,1.09.09,1.44.27.35.18.63.45.84.8.21.35.31.74.31,1.16,0,.3-.06.58-.17.86-.12.27-.28.51-.49.72-.22.21-.47.37-.76.48-.17.07-.32.11-.46.13-.14.02-.41.03-.8.03h-1.41ZM92.31,32.23h-.8v3.32h.82c.32,0,.57-.02.74-.07.18-.04.32-.1.44-.17.12-.07.23-.15.32-.25.32-.32.47-.72.47-1.21s-.16-.87-.49-1.17c-.12-.11-.26-.21-.41-.28-.15-.07-.3-.12-.44-.14-.14-.02-.36-.04-.67-.04Z"/>
      <path fill="#003058" d="M96.2,31.66h.64v4.41c0,.41-.04.72-.13.91-.08.2-.22.35-.41.47-.19.12-.41.18-.68.18-.04,0-.11,0-.21-.02l-.12-.59h.16c.18,0,.32-.02.42-.07.1-.04.17-.12.23-.24.06-.11.08-.35.08-.72v-4.33Z"/>
      <path fill="#003058" d="M99.73,31.64h.45l2,4.49h-.65l-.59-1.32h-1.9l-.56,1.32h-.66l1.92-4.49ZM100.67,34.24l-.72-1.62-.67,1.62h1.39Z"/>
      <path fill="#003058" d="M106.84,31.66h.6v4.46h-.64v-3.47l-1.37,1.73h-.12l-1.39-1.73v3.47h-.64v-4.46h.6l1.48,1.83,1.47-1.83Z"/>
      <path fill="#003058" d="M108.92,31.66h2.53v.57h-1.89v1.36h1.83v.57h-1.83v1.39h1.95v.57h-2.59v-4.46Z"/>
      <path fill="#003058" d="M116.39,31.66h.61v4.46h-.55l-2.98-3.44v3.44h-.6v-4.46h.52l3.01,3.47v-3.47Z"/>
      <path fill="#003058" d="M120,31.64h.45l2,4.49h-.65l-.59-1.32h-1.9l-.56,1.32h-.66l1.92-4.49ZM120.94,34.24l-.72-1.62-.67,1.62h1.39Z"/>
      <path fill="#003058" d="M122.23,3.98h-21.87v21.87h21.87s0-21.87,0-21.87,0-21.87Z"/>
      <path fill="#003058" d="M13.79,31.56c.16-.2.31-.5,1.13-.7,0,0,27.87-9.47,64.95-7.57,0,0,2.11-.08,1.53.84-.34.54-.96.57-2.15.64,0,0-.4.06-1.98.05,0,0,3.79,1.47-11.18,1.17,0,0,1.32,1.35-4.18.96,0,0-15.35-.7-46.37,4.93,0,0-2.44.53-1.75-.3h0Z"/>
      <path fill="#003058" d="M45.27.94s-1.85-2.33-1.53.36c0,0,.25,5.6-.67,12.56-.11-.27-.25-.55-.44-.82,0,0-1.61-2.14-3.41-1.55,0,0-2.3.72-3.64,4.2,0,0-.94,2.4-.67,4.21,0,0-.09,4.75,5.69,1.39,0,0,.61-.37,1.33-1.1-.14.59-.36.98-.39,1.59,0,0-.21,1.25.37,1.57.22.12.45-.05.96-1.27,0,0,4.11-10.55,4.33-14.9,0,0,1.44-2.16-1.93-6.25h0ZM38.1,19.92s-.43-.28-.4-1.56c0,0,.12-2.21,1.62-3.99,0,0,.42-.53.76-.6.11-.02.3.15.38.82.02.17-.46.2-.28.73,0,0,.8,2.02,2.49,1.11-.07.42-.15.83-.23,1.25-.88,1.22-2.72,3.33-4.35,2.22h0ZM59.47,11.35s3.34,3.56,3.2,6.03c0,0-.46,3.43-6.13,3.31,0,0-1.41-.21-.02-1.11,0,0,3.69-1.19,1.27-5.63,0,0-2.29,2.68-3.8,4.17h.01c-4.33,4.23-5.18,2.68-5.18,2.68-1.65-2.36-.44-7.52-.44-7.52.64-2.73,2.05-1.76,2.05-1.76,2.06.34,1.29,2.12,1.29,2.12-.26,1.37-.6,1.22-.6,1.22-.64.51-.77,2.77-.77,2.77.26,1.25-.85,2.98,2.35.2.76-.76,4.6-5.08,5.21-6.78,0,0,.64-1.66,1.55.3h0ZM54.51,6.09c-.06.53-.34.98-.73,1.22-.56.42-1.7,1.13-2.07,1.04-.37-.1.05-1.28.07-1.61.02-.38.02-.65.1-1,.12-.81.77-1.39,1.48-1.32.73.08,1.25.83,1.16,1.68h0ZM78.09,10.69c.99-1.31,1.68-.72,1.68-.72.09.05.29-.01.37-.02,1.31-.1.24,1.19.24,1.19-1.11,1.51-2.11,4.32-2.11,4.32-.25.64-.5,1.66-.5,1.66-.4,1.71,1.4.5,1.4.5.26-.18.49-.44.61-.56.21-.2.38-.22.38-.22.38-.05-.26-2.01-.26-2.01-.27-.77-.23-.81-.23-.81-.18-.95.35-1.19.35-1.19.56-.34,1.02.56,1.02.56.5.77.95,2.78.95,2.78.43,1.79-.91,1.65-.91,1.65-.56.11-1.51,1.05-1.51,1.05-1.48,1.22-3.54,1.34-3.54,1.34-2.05.07-1.88-1.73-1.88-1.73-.02-1.95,3.93-7.81,3.93-7.81h0ZM69.86,13.26c.94.66,2.53,2.12,2.26,3.64,0,0-.46,3.43-6.13,3.32,0,0-.62-.03-.63-.42,0-.28.12-.51.61-.69,0,0,3.69-1.19,1.27-5.63,0,0-.91.71-2.19,1.7,0,0-.89.99-.83-.41,0,0,2.06-1.22,2.74-3.11.34-1.25,2.18-2.31,2.36-1.26.08.48-.47.77-.74,1.11-.61.77.17,2.39.87,2.83h0ZM33.26,20.11s-.01-.07-.07-.12c-.15-.11-.9.23-1.65.68-.12.07-.23.13-.33.19-.27.17-.54.34-.64.43,0,0-.48.38-.43-.48,0-.01,0-.02,0-.03h0c0-.19.05-.43.06-.69,0,0,.66-2.62.94-3.36,0,0,.16-.69.4-1.48,0,0,1.12-1.16-.94-1.54,0,0-.98-2.42-2.04,1.39,0,0,0,0,0,0-.07-.39-.43-.99-.99-1.23-.11-.06-.27-.11-.48-.13-.08,0-.14.01-.32,0,0,0-.98-.34-2.04.98-1.12,1.24-4.4,5.16-3.65,8.45,0,0,.4,1.7,1.92,1.69,0,0,2,.02,3.51-1.41,0,0,.45-.4.94-.99.02.2.05.42.11.64,0,.04.02.09.03.13,0,0,.06.38.37.67.23.21.6.37,1.19.29.06-.01.12-.03.18-.05,0,0,2.12-.51,2.07-1.41-.03-.44.13-.53.13-.53,0,0,.13-.07.09-.23,0,0,1.69-1.13,1.63-1.84h0ZM27.15,21.36c-.17.28-.34.6-.79.89,0,0-2.32,1.42-2.24-.58,0,0,.08-1.11.46-2.14,0,0,1.07-2.71,2.72-4.29.15-.15.28-.17.37-.05.23.32.27.68.45.97.05.08.1.16.15.24-.2,1.02-.71,2.94-.79,4.4-.06.2-.21.39-.33.58h0ZM11.01,10.37c.44.81-.15,2.1-.15,2.1-2.57,5.25-5.78,17.65-6.42,20.18h.01s-.02.04-.04.11c-.06.23-.09.35-.09.35-.04.19-.09.35-.13.51-.07.39-.12.88-.11,1.44h0c.02.67,0,1.36-.21,1.45-.58.26-.88-.51-1.03-1.35-.57-.13-1.03-.86-1.03-.86-2.08-1.39-.53-5.27-.53-5.27,1.41-5.61,8.42-17.45,8.42-17.45.82-1.32,1.16-1.48,1.32-1.2h0ZM21.65,30.22c1.11,1.55,1.96,2.64,1.73,2.85-.76.66-4.16-2-4.16-2-5.92-4.91-8.53-11.16-9.11-12.68-.08-.22.08-.42.08-.42.2-.22.52-.35,1.38-.45,0,0,0,0,0,0-.45-.22-.59-.27-.55-.42.09-.24.92-.24.92-.24.65-.03,1.13-.07,1.13-.07.96-.1,1.45-.19,1.45-.19,2.04-.33,2.84-1.21,2.84-1.21,2.02-2.05-1.22-4.1-1.22-4.1C7.92,6.56,1.29,8.8,1.29,8.8c-.36.1-.64.11-1.03-.02-.86-.29.67-1.51.67-1.51,4.08-3.38,6.22-2.37,6.22-2.37,7.92.53,11.41,4.67,11.41,4.67,2.76,2.92,2.05,5.25,1.67,5.93-1.35,2.47-4.55,2.53-4.55,2.53-.5.03-.94.04-1.32.04.37.42.64,1.15.64,1.15.61,1.93,6.65,10.99,6.65,10.99h0ZM95.87,18.88s4.34,3.58-1.04,3.4c0,0-1.05.08-1.69-2.08,0,0-1.85-4.23-1.72-5.82-.18.2-1.21,1.44-1.79,2.8-.34.79-.48,1.06-.96,1.82-.27.38-.52.72-.76.94-2.38,2.2-2.61-.61-2.61-.61-.49-2.4.74-6.25.74-6.25.89-2.66,2.21-1.56,2.21-1.56,1.82.47,1.08,2.23,1.08,2.23-.39,1.34-.74,1.05-.74,1.05-.45.3-.57.94-.6,1.35,0,0-.17,1.49.5.35.5-1.02,1.47-2.71,2.18-3.25,0,0,1.04-1.11,1.65-.19,0,0,2.62,5.26,3.56,5.84h0Z"/>
      <path fill="#ffffff" d="M107.34,15.43c.26-.15.42-.4.42-.74v-.41c0-.45-.18-1.21-1.42-1.21h-4.24v5.09h4.31c.93,0,1.54-.46,1.54-1.17v-.57c0-.51-.2-.84-.61-.99ZM106.82,14.68c0,.21-.06.45-.57.45h-3.21v-1.24h3.24c.09,0,.54.02.54.36v.44ZM103.04,15.95h3.19c.62,0,.78.11.78.54v.34c0,.31-.11.5-.68.5h-3.29v-1.39ZM110,17.34h3.73v.82h-4.67v-5.09h.94v4.27ZM120.47,13.07v3.74c0,1.17-.71,1.41-1.86,1.41h-2.21c-1.15,0-1.85-.23-1.85-1.41v-3.74h.94v3.73c0,.36.06.59.9.59h2.25c.83,0,.9-.23.9-.59v-3.73h.94Z"/>
    </g>
  </g>
</svg>
